<?xml version="1.0" standalone="no"?>
<!DOCTYPE svg PUBLIC "-//W3C//DTD SVG 20010904//EN"
 "http://www.w3.org/TR/2001/REC-SVG-20010904/DTD/svg10.dtd">
<svg version="1.0" xmlns="http://www.w3.org/2000/svg"
 width="532.000000pt" height="532.000000pt" viewBox="0 0 532.000000 532.000000"
 preserveAspectRatio="xMidYMid meet">
<metadata>
Created by potrace 1.14, written by Peter Selinger 2001-2017
</metadata>
<g transform="translate(0.000000,532.000000) scale(0.100000,-0.100000)"
fill="#000000" stroke="none">
<path d="M0 4460 c0 -549 4 -860 10 -860 5 0 20 18 32 40 23 40 47 56 33 23
-4 -10 -10 -26 -12 -35 -3 -10 -9 -18 -13 -18 -10 0 -22 -37 -25 -75 -3 -58
-5 -66 -13 -61 -4 2 -9 -40 -10 -94 -2 -66 1 -100 8 -105 17 -11 30 7 45 61
13 48 13 49 15 14 l2 -35 11 40 c7 28 7 40 -1 43 -7 2 4 19 24 37 31 29 34 37
24 55 -6 11 -8 25 -5 30 8 13 35 13 35 -1 0 -5 -4 -8 -9 -4 -19 11 -20 -13 -2
-34 24 -27 35 -27 55 4 9 14 21 25 27 25 15 0 79 70 79 87 0 8 5 11 10 8 6 -3
10 -17 10 -31 0 -13 4 -24 9 -24 5 0 8 13 6 30 -3 22 1 33 16 41 18 9 19 8 10
-9 -11 -22 -11 -62 1 -62 5 0 14 12 21 27 13 30 87 111 87 97 0 -5 -22 -47
-50 -94 -27 -47 -50 -95 -50 -106 0 -12 -7 -38 -15 -57 -30 -72 -8 -80 33 -12
17 28 34 44 46 45 11 0 37 18 57 40 59 63 83 48 32 -19 -72 -97 -133 -157
-212 -209 -114 -76 -127 -82 -168 -82 -27 0 -34 -4 -31 -17 2 -10 14 -20 28
-23 25 -5 33 -9 152 -86 72 -47 125 -64 176 -56 18 2 62 -1 98 -8 46 -9 69 -9
76 -2 12 12 -4 17 -77 26 -96 12 -167 27 -188 40 -12 8 -51 26 -87 41 -63 26
-100 50 -100 65 0 4 15 13 33 21 40 16 180 112 225 153 67 62 214 297 178 283
-10 -4 -22 -7 -27 -7 -5 0 -18 -14 -28 -31 -11 -18 -22 -26 -25 -20 -13 20
-32 11 -77 -34 -40 -40 -69 -57 -69 -38 0 22 126 196 184 254 71 70 79 87 33
70 -14 -5 -54 -13 -89 -16 -143 -14 -267 -70 -376 -170 -39 -37 -72 -73 -72
-81 0 -8 -4 -14 -10 -14 -50 0 97 291 189 372 146 129 323 258 384 281 25 9
21 27 -6 27 -30 0 -132 75 -211 154 -100 100 -237 323 -281 457 -23 68 -11 79
47 46 23 -14 68 -33 99 -42 89 -25 317 -52 415 -48 134 4 364 43 364 61 0 4
-23 18 -52 31 -91 42 -302 271 -249 271 5 0 14 -6 20 -14 15 -18 139 -78 209
-101 62 -20 244 -45 255 -35 4 3 -16 21 -44 40 -94 60 -269 243 -269 280 0 6
-169 10 -475 10 l-475 0 0 -860z m770 815 c0 -8 -4 -15 -10 -15 -5 0 -10 7
-10 15 0 8 5 15 10 15 6 0 10 -7 10 -15z m28 -82 c-2 -9 -8 -18 -15 -20 -7 -3
-9 3 -6 16 6 25 26 28 21 4z m-14 -169 c9 -20 15 -38 13 -40 -8 -8 -47 38 -47
56 0 31 15 24 34 -16z m-25 -91 c-1 -37 -3 -42 -8 -23 -7 24 -3 70 5 70 2 0 4
-21 3 -47z m-222 -697 c4 -7 18 -18 31 -25 28 -15 28 -38 0 -46 -11 -4 -56
-32 -99 -61 -43 -30 -81 -54 -86 -54 -10 1 70 72 113 102 17 12 37 30 43 41
10 16 9 19 -8 24 -12 3 -21 12 -21 19 0 18 17 18 27 0z m-202 -236 c-3 -5 -16
-15 -28 -21 -19 -9 -19 -8 3 10 28 23 34 26 25 11z m-165 -169 c0 -6 -11 -22
-25 -37 -28 -30 -29 -29 -14 15 10 28 39 44 39 22z m-55 -90 c-3 -6 -11 -11
-17 -11 -6 0 -6 6 2 15 14 17 26 13 15 -4z m425 5 c0 -13 -49 -56 -64 -56 -4
0 -2 9 4 19 8 16 6 20 -8 24 -10 3 -7 5 10 6 15 0 30 6 33 11 9 15 25 12 25
-4z m-170 -39 c-25 -11 -51 -27 -58 -34 -7 -7 -28 -20 -47 -29 -19 -9 -35 -20
-35 -25 0 -5 -5 -9 -11 -9 -6 0 -20 -11 -31 -25 -11 -14 -25 -25 -31 -25 -7 1
-6 6 4 13 8 7 18 20 22 30 4 11 16 21 27 24 11 3 20 9 20 13 0 11 88 63 130
76 55 18 59 15 10 -9z m25 -57 c-3 -5 -12 -10 -18 -10 -7 0 -6 4 3 10 19 12
23 12 15 0z m-125 -55 c0 -8 -4 -15 -10 -15 -5 0 -7 7 -4 15 4 8 8 15 10 15 2
0 4 -7 4 -15z m-183 -135 c-7 -17 -13 -26 -15 -21 -3 10 15 51 22 51 3 0 -1
-14 -7 -30z"/>
<path d="M2676 5312 c-2 -4 -8 -69 -12 -143 -6 -117 -4 -139 10 -168 23 -43
30 -34 15 20 -8 30 -9 85 -5 172 6 119 4 139 -8 119z"/>
<path d="M5037 5306 c-3 -7 -25 -16 -49 -19 -23 -3 -74 -15 -113 -26 -38 -11
-126 -26 -195 -32 -135 -13 -184 -27 -70 -21 68 4 202 -15 305 -43 71 -19 286
-38 351 -29 l54 6 0 89 0 89 -139 0 c-108 0 -140 -3 -144 -14z"/>
<path d="M2880 5221 c0 -26 33 -141 40 -141 5 0 -1 33 -12 73 -20 72 -28 91
-28 68z"/>
<path d="M2295 5125 c-80 -15 -240 -82 -294 -122 -52 -39 -191 -175 -191 -186
0 -6 33 21 73 59 39 38 95 87 124 107 62 45 207 110 281 126 103 22 243 9 299
-27 12 -7 28 -12 35 -10 18 6 -34 38 -78 48 -72 17 -179 19 -249 5z"/>
<path d="M2288 4973 c7 -3 16 -2 19 1 4 3 -2 6 -13 5 -11 0 -14 -3 -6 -6z"/>
<path d="M2221 4956 c-10 -12 -8 -13 8 -9 12 3 21 9 21 14 0 14 -16 11 -29 -5z"/>
<path d="M2360 4924 c-90 -21 -150 -40 -243 -77 -82 -33 -176 -91 -177 -110 0
-9 1 -8 75 39 61 38 242 105 348 128 61 14 88 15 130 7 94 -18 177 -24 177
-12 0 12 -11 15 -131 30 -99 13 -106 13 -179 -5z"/>
<path d="M2933 4915 c15 -56 21 -73 38 -112 10 -23 24 -45 30 -49 8 -4 8 -1 1
13 -6 11 -21 48 -33 84 -20 60 -48 110 -36 64z"/>
<path d="M2734 4882 c-34 -18 -73 -61 -94 -102 -7 -15 10 -3 45 32 32 32 66
60 76 63 11 4 19 11 19 16 0 13 -10 11 -46 -9z"/>
<path d="M5275 4824 c-31 -41 -156 -136 -228 -174 -26 -14 -47 -28 -47 -31 0
-26 177 -99 257 -106 l63 -6 0 177 c0 97 -4 176 -9 176 -5 0 -21 -16 -36 -36z"/>
<path d="M2796 4797 c-9 -23 -16 -56 -16 -72 0 -23 7 -13 25 40 29 81 27 75
16 75 -4 0 -16 -19 -25 -43z"/>
<path d="M4630 4826 c0 -2 18 -15 40 -30 23 -15 59 -43 80 -63 51 -45 52 -34
3 14 -49 46 -123 94 -123 79z"/>
<path d="M1782 4774 c-7 -14 -8 -23 -2 -19 15 9 32 45 22 45 -5 0 -14 -12 -20
-26z"/>
<path d="M2607 4733 c-4 -3 -7 -11 -7 -17 0 -6 5 -5 12 2 6 6 9 14 7 17 -3 3
-9 2 -12 -2z"/>
<path d="M4815 4670 c10 -11 20 -20 23 -20 3 0 -3 9 -13 20 -10 11 -20 20 -23
20 -3 0 3 -9 13 -20z"/>
<path d="M1650 4471 c0 -14 5 -19 15 -14 17 6 15 25 -3 31 -7 2 -12 -5 -12
-17z"/>
<path d="M5215 4464 c-65 -15 -209 -20 -245 -9 -21 7 -22 5 -16 -31 17 -89 95
-273 166 -389 54 -88 171 -235 188 -235 9 0 12 75 12 340 l0 340 -22 -1 c-13
-1 -50 -8 -83 -15z"/>
<path d="M4191 3964 c0 -11 3 -14 6 -6 3 7 2 16 -1 19 -3 4 -6 -2 -5 -13z"/>
<path d="M3893 3950 c3 -8 11 -33 17 -55 6 -22 15 -53 20 -70 5 -16 14 -65 21
-107 7 -43 17 -78 21 -78 14 0 8 52 -13 130 -12 41 -26 96 -33 122 -6 26 -17
53 -25 60 -11 11 -13 10 -8 -2z"/>
<path d="M2317 3937 c-4 -10 -7 -33 -6 -50 l1 -32 9 33 c12 40 8 79 -4 49z"/>
<path d="M4217 3872 c8 -37 19 -92 24 -122 10 -57 12 -358 3 -397 -3 -12 -1
-30 4 -39 18 -31 25 86 19 286 -5 153 -9 194 -26 240 -12 30 -21 62 -21 72 0
9 -4 19 -8 22 -5 3 -2 -25 5 -62z"/>
<path d="M485 3860 c-3 -6 1 -7 9 -4 18 7 21 14 7 14 -6 0 -13 -4 -16 -10z"/>
<path d="M4371 3814 c0 -11 3 -14 6 -6 3 7 2 16 -1 19 -3 4 -6 -2 -5 -13z"/>
<path d="M2290 3780 c0 -12 -9 -112 -21 -223 -22 -213 -21 -403 3 -499 7 -31
8 -57 2 -79 l-9 -32 -32 31 c-17 17 -41 53 -53 79 -12 27 -26 56 -31 65 -5 10
-9 27 -9 38 0 11 -4 20 -9 20 -5 0 -12 28 -16 63 -4 34 -12 80 -18 102 -6 22
-12 110 -13 195 -1 85 -3 171 -4 190 l-1 35 -20 -43 c-10 -24 -26 -94 -34
-155 -9 -62 -18 -123 -21 -137 -3 -14 -8 -83 -10 -154 -2 -71 -6 -131 -8 -133
-5 -5 -63 27 -76 42 -7 8 -18 15 -24 15 -28 1 -66 49 -85 106 -16 49 -22 98
-26 230 -3 93 -8 170 -10 173 -3 2 -5 -7 -5 -22 0 -14 -4 -36 -9 -49 -5 -13
-14 -89 -21 -168 -7 -87 -16 -150 -24 -158 -10 -10 -22 -9 -64 4 -47 16 -52
20 -58 53 -11 71 -26 79 -37 21 -6 -26 -11 -30 -39 -31 -18 0 -42 -4 -52 -8
-16 -6 -11 -10 25 -19 l45 -11 1 -223 c0 -248 8 -359 26 -370 9 -5 9 -10 -1
-20 -9 -9 -12 -9 -12 4 0 9 -6 18 -14 21 -7 3 -32 45 -55 94 -23 48 -51 106
-61 128 -11 22 -29 75 -41 118 -12 42 -26 77 -30 77 -9 0 -3 -285 6 -299 2 -5
7 -37 10 -72 3 -35 8 -77 11 -93 4 -19 3 -26 -5 -22 -6 4 -11 12 -11 17 0 6
-7 17 -15 26 -9 8 -19 28 -22 44 -3 16 -9 29 -14 29 -5 0 -9 5 -9 11 0 5 -13
38 -29 72 -16 34 -35 85 -43 112 -9 28 -19 50 -24 50 -13 0 -17 -44 -6 -58 6
-7 20 -37 31 -67 20 -52 20 -56 4 -68 -10 -7 -33 -12 -52 -10 -29 3 -36 8 -43
33 -10 38 -3 272 9 305 5 14 7 104 4 205 -4 134 -7 166 -12 125 -4 -30 -7 -84
-8 -120 0 -36 -8 -117 -17 -180 -13 -94 -14 -143 -7 -265 5 -83 12 -157 16
-165 4 -8 2 -22 -4 -30 -8 -11 -12 -12 -15 -3 -3 7 -16 28 -29 47 -13 20 -29
54 -36 76 -7 22 -16 40 -22 40 -10 0 -9 -6 28 -105 23 -64 32 -115 24 -140 -6
-18 12 -134 24 -158 7 -12 29 -46 51 -76 l39 -52 -12 -69 c-6 -38 -11 -96 -11
-129 0 -66 -8 -73 -40 -38 -75 79 -100 171 -107 400 -3 99 -10 177 -15 177 -5
0 -30 -20 -56 -44 -47 -45 -129 -109 -147 -117 -28 -11 -125 -72 -135 -84 -16
-19 -1 -19 24 0 26 20 62 19 70 -1 6 -17 -1 -602 -9 -792 -3 -63 -11 -122 -17
-132 -9 -14 -8 -28 5 -61 15 -39 16 -84 11 -404 -3 -198 -9 -373 -14 -388 -9
-26 -8 -28 13 -21 12 3 27 10 32 14 8 6 160 73 250 109 11 5 40 17 65 27 149
61 310 163 440 280 110 98 210 174 230 174 11 0 27 -12 37 -26 18 -28 17 -36
-26 -158 -25 -70 -26 -125 -5 -186 16 -47 87 -192 104 -213 6 -7 53 -73 104
-147 52 -74 99 -139 103 -145 5 -5 49 -59 98 -120 49 -60 98 -119 108 -130 11
-11 39 -46 64 -78 l46 -57 497 0 497 0 31 78 c16 42 45 117 62 167 18 50 37
99 41 110 16 36 83 270 104 365 17 77 20 258 4 330 -12 58 -11 61 64 149 25
29 58 78 73 107 15 30 30 53 33 52 75 -39 111 -52 326 -113 50 -14 99 -30 110
-34 11 -5 47 -19 80 -32 33 -12 78 -30 100 -39 22 -9 75 -30 118 -46 89 -33
130 -67 187 -155 60 -93 72 -146 64 -292 -3 -67 -14 -165 -25 -217 -10 -52
-21 -113 -24 -135 -2 -22 -16 -86 -30 -143 -28 -115 -31 -152 -12 -152 12 0
35 95 59 240 15 93 49 210 59 204 5 -3 9 -53 9 -111 0 -58 5 -157 12 -219 l12
-114 243 0 243 0 0 1858 0 1857 -157 0 c-129 0 -168 3 -213 19 -30 10 -61 23
-67 29 -20 15 -16 5 28 -90 107 -230 138 -334 160 -546 9 -90 9 -133 1 -185
-7 -37 -13 -78 -15 -92 -2 -22 -4 -20 -25 20 -46 88 -146 250 -154 250 -4 0
-8 5 -8 12 0 15 -121 129 -130 123 -15 -9 0 -106 29 -180 17 -44 31 -86 31
-94 0 -21 -45 24 -83 81 -16 27 -32 46 -34 44 -7 -7 17 -143 36 -202 33 -106
83 -216 126 -284 70 -109 88 -141 81 -147 -13 -13 -97 -2 -163 22 -108 38
-138 52 -199 95 -69 48 -88 52 -74 14 8 -21 5 -39 -14 -88 -37 -93 -49 -177
-42 -291 4 -55 4 -109 0 -118 -16 -42 -72 86 -105 234 -11 54 -10 73 6 127 5
14 3 22 -4 22 -6 0 -11 -5 -11 -11 0 -11 -44 -74 -72 -102 -10 -10 -18 -21
-18 -25 0 -4 -15 -23 -33 -42 -19 -19 -46 -54 -60 -77 -27 -43 -81 -90 -107
-93 -47 -7 -60 0 -60 29 0 17 5 33 10 36 6 3 11 21 11 38 1 18 3 24 6 15 2
-10 9 -18 15 -18 22 0 181 168 213 225 35 63 60 145 44 145 -15 0 -6 72 9 77
7 3 24 -5 37 -17 21 -20 25 -33 27 -99 4 -89 11 -79 29 44 19 125 18 299 -3
350 -13 32 -14 41 -3 50 9 6 15 37 17 83 2 60 1 70 -9 55 -7 -9 -13 -34 -13
-55 0 -34 -18 -105 -40 -153 -17 -38 -40 -116 -40 -135 0 -11 -4 -20 -9 -20
-14 0 -21 61 -12 100 4 21 2 76 -6 140 -8 58 -12 131 -10 163 3 31 3 66 0 77
-9 33 -23 12 -23 -34 0 -23 -4 -46 -8 -51 -5 -6 -21 -50 -36 -100 -15 -49 -32
-98 -37 -107 -5 -10 -9 -26 -9 -37 0 -10 -7 -24 -15 -31 -8 -7 -15 -18 -15
-25 0 -7 -7 -18 -15 -25 -14 -12 -15 5 -10 164 4 106 3 182 -3 189 -5 7 -12
28 -15 47 -4 19 -16 67 -26 105 -11 39 -21 94 -21 123 0 29 -5 52 -10 52 -7 0
-10 -37 -9 -102 2 -126 -8 -227 -28 -293 -8 -27 -19 -64 -24 -81 -5 -17 -9
-42 -9 -57 0 -43 -18 -31 -24 16 -6 44 -13 97 -22 160 -7 41 12 66 49 67 9 0
17 7 17 16 0 11 -5 14 -16 10 -48 -18 -62 -17 -78 5 -9 13 -16 31 -16 40 0 9
-16 46 -35 83 -19 37 -35 72 -35 77 0 6 -13 24 -30 41 -16 16 -30 36 -30 44 0
8 -5 14 -11 14 -8 0 -9 -14 -3 -47 15 -81 -1 -353 -19 -353 -14 0 -24 24 -65
150 -17 53 -46 125 -64 162 -27 53 -36 63 -46 52 -17 -18 -15 -37 3 -30 17 6
20 -15 4 -31 -6 -6 -9 -21 -7 -34 4 -23 5 -23 18 6 l13 30 10 -47 c5 -27 12
-48 16 -48 5 0 13 -26 20 -57 7 -32 17 -67 21 -78 10 -23 24 -75 24 -90 1 -5
-5 -10 -12 -10 -8 0 -19 -8 -26 -18 -12 -15 -15 -16 -26 -2 -21 25 -36 108
-39 210 -1 42 -4 55 -11 44 -5 -9 -7 -45 -4 -80 5 -53 7 -168 5 -216 -1 -7
-18 -20 -38 -28 -38 -16 -38 -16 -60 11 -12 15 -27 39 -34 53 -7 14 -21 38
-31 53 -10 14 -18 31 -18 38 0 13 -19 60 -51 125 -10 22 -19 43 -19 47 0 5
-13 36 -29 70 -23 50 -61 194 -61 231 0 17 -18 5 -23 -15 -5 -17 -9 -19 -20
-10 -7 6 -23 9 -35 5 -23 -6 -31 11 -9 21 6 3 -3 3 -21 0 -24 -4 -47 1 -80 18
-26 12 -49 26 -52 29 -8 11 -82 50 -86 46 -2 -2 14 -18 35 -35 38 -31 39 -35
47 -115 l8 -82 6 63 c4 34 10 65 14 69 9 9 80 -15 164 -56 32 -16 42 -35 40
-76 -1 -11 -1 -38 0 -60 l2 -39 17 24 17 24 9 -34 c5 -19 10 -45 10 -57 1 -11
5 -19 10 -16 4 2 7 -2 7 -10 0 -8 7 -28 15 -43 8 -16 15 -36 15 -45 0 -9 7
-22 15 -29 11 -9 14 -23 10 -44 -4 -22 -3 -27 4 -17 7 11 14 3 32 -35 13 -27
26 -51 29 -54 12 -9 30 -48 30 -64 0 -9 -13 -29 -30 -44 -16 -16 -30 -34 -30
-39 0 -5 -9 -18 -21 -29 -21 -19 -21 -18 -40 5 -10 13 -19 33 -19 45 -1 18 -2
19 -10 4 -7 -11 -7 -25 0 -42 12 -33 6 -48 -30 -69 l-29 -17 -39 57 c-46 69
-82 140 -82 164 0 10 -4 20 -9 23 -5 3 -11 20 -14 38 -3 18 -10 51 -16 73 -11
41 -22 101 -42 218 -11 63 -27 89 -31 50 -1 -10 -3 -31 -5 -48 -20 -180 -21
-204 -8 -335 1 -14 3 -47 5 -75 2 -45 3 -47 10 -20 4 17 8 60 9 97 1 39 6 70
13 74 8 5 9 0 6 -14 -8 -28 8 -39 17 -12 9 28 27 14 19 -15 -3 -12 -1 -26 5
-29 6 -4 11 -18 11 -31 0 -13 5 -27 10 -30 6 -3 10 -15 10 -26 0 -10 5 -19 11
-19 8 0 8 -4 0 -14 -9 -11 -7 -15 9 -19 17 -4 26 -28 21 -59 0 -5 5 -7 12 -5
7 1 13 -10 15 -26 2 -15 8 -25 13 -22 5 4 9 2 9 -4 0 -6 -9 -15 -20 -21 -11
-6 -20 -18 -20 -26 0 -9 -7 -31 -16 -50 -20 -42 -14 -51 18 -30 14 9 28 13 32
9 4 -4 11 -1 16 7 8 13 10 13 10 -2 0 -10 6 -15 18 -12 10 3 22 -3 30 -16 9
-14 9 -19 1 -18 -14 4 -82 -119 -74 -133 10 -15 29 -10 55 14 14 13 36 23 48
22 18 -1 22 4 22 29 1 27 7 19 45 -54 51 -99 88 -134 157 -150 58 -14 119 -2
185 36 79 46 106 110 104 251 l-1 95 33 -7 c17 -4 34 -11 35 -16 2 -5 11 -9
20 -9 15 1 15 2 0 14 -10 7 -18 19 -18 26 0 9 -12 11 -41 7 -40 -5 -40 -5 -37
26 3 28 7 32 34 35 16 2 43 -2 58 -8 24 -9 27 -15 26 -48 -3 -66 0 -77 23 -87
17 -8 21 -17 19 -40 -4 -42 -31 -115 -57 -150 -33 -45 -38 -55 -23 -50 12 5
58 66 67 90 2 6 12 21 21 35 9 14 32 52 50 85 48 89 53 90 47 13 -4 -41 -18
-95 -37 -139 -45 -107 -40 -125 17 -61 l34 37 -5 -55 c-2 -30 -10 -82 -16
-115 -6 -33 -15 -80 -20 -105 -31 -173 -89 -350 -127 -388 -7 -7 -13 -17 -13
-20 0 -16 -70 -84 -140 -135 -111 -82 -192 -143 -220 -165 -14 -10 -72 -51
-130 -90 -58 -40 -123 -85 -145 -102 -22 -16 -67 -47 -100 -69 -178 -117 -268
-161 -332 -161 -51 0 -53 1 -263 125 -63 37 -130 76 -147 86 -43 25 -258 164
-308 200 -22 16 -67 47 -100 70 -83 56 -221 201 -255 268 -28 54 -29 55 -30
24 0 -33 -36 -151 -50 -166 -22 -25 -52 271 -30 298 14 17 30 20 30 6 0 -19
44 -105 47 -94 5 14 -36 153 -49 167 -4 6 -8 19 -8 30 0 23 -42 195 -85 346
-30 109 -56 222 -52 227 4 4 77 -95 77 -105 0 -11 70 -92 79 -92 14 0 -4 136
-19 145 -10 6 -1 45 10 45 13 0 60 -68 95 -138 39 -76 80 -131 91 -119 4 4 -1
17 -12 30 -52 61 -112 197 -111 254 0 40 16 61 37 48 4 -3 10 4 13 15 3 11 10
20 17 20 6 0 9 -4 6 -9 -3 -5 1 -14 9 -21 7 -6 11 -18 8 -27 -5 -13 -3 -13 15
-4 14 7 22 21 22 36 0 27 27 34 48 13 8 -8 16 -6 30 11 16 21 19 22 31 7 7 -9
28 -16 45 -16 24 0 36 -8 54 -33 26 -39 28 -64 6 -95 -20 -29 -70 -29 -100 -1
-34 32 -47 16 -39 -50 17 -135 114 -231 232 -231 94 1 186 65 223 155 22 54
33 65 45 45 4 -6 10 -8 15 -5 5 3 12 0 15 -6 4 -5 12 -8 19 -6 6 3 25 -13 41
-34 16 -22 33 -35 38 -30 9 9 -30 73 -106 169 -38 49 -47 66 -37 72 9 6 31 -8
68 -43 38 -37 62 -52 81 -52 16 0 34 -5 42 -11 37 -29 129 -72 135 -63 8 13
-2 50 -26 103 -29 62 -50 126 -50 152 0 13 -4 24 -8 24 -14 0 -35 111 -24 122
8 8 35 -62 36 -97 1 -18 79 -160 103 -187 8 -9 12 -22 7 -29 -5 -8 -3 -10 6
-4 10 6 12 4 7 -9 -6 -14 -3 -17 9 -12 12 5 14 1 8 -16 -5 -16 -3 -20 9 -15
11 4 14 2 11 -8 -3 -8 4 -20 15 -27 12 -7 21 -16 21 -20 0 -5 8 -17 18 -27 9
-11 35 -44 57 -74 22 -30 49 -61 61 -68 56 -37 114 -84 114 -94 0 -5 9 -16 20
-23 22 -13 21 -16 5 56 -8 32 -25 45 -25 17 0 -8 -4 -15 -8 -15 -10 0 -76 68
-88 91 -9 16 -20 31 -110 143 -120 151 -218 337 -251 476 -9 36 -20 74 -24 85
-20 49 -41 190 -44 300 -3 66 -7 140 -11 165 -11 82 -27 16 -26 -111 1 -149
20 -444 32 -484 17 -62 40 -171 40 -190 0 -12 5 -26 12 -33 6 -6 8 -15 3 -19
-4 -5 -10 -2 -12 5 -3 6 -10 12 -17 12 -33 0 -168 277 -195 400 -30 137 -48
319 -50 498 -1 54 -5 92 -11 92 -5 0 -10 -9 -10 -20z m1493 -395 c31 -63 44
-135 25 -135 -10 0 -9 -3 2 -10 12 -8 11 -10 -7 -10 -12 0 -23 -5 -25 -11 -3
-9 -9 -9 -25 -1 -24 13 -31 65 -24 190 4 82 3 82 54 -23z m-1739 50 c-4 -8 -8
-15 -10 -15 -2 0 -4 7 -4 15 0 8 4 15 10 15 5 0 7 -7 4 -15z m-284 -80 c0 -8
-4 -15 -10 -15 -5 0 -10 7 -10 15 0 8 5 15 10 15 6 0 10 -7 10 -15z m310 11
c0 -3 -4 -8 -10 -11 -5 -3 -10 -1 -10 4 0 6 5 11 10 11 6 0 10 -2 10 -4z m-30
-52 c0 -30 15 -31 25 -1 7 20 8 20 12 -8 2 -16 8 -39 12 -50 5 -11 14 -40 21
-65 7 -25 16 -54 20 -65 28 -70 6 -100 -36 -49 -13 16 -28 34 -33 40 -6 7 -14
14 -20 15 -5 2 -11 52 -13 111 -2 58 0 104 4 102 5 -3 8 -16 8 -30z m265 -19
c16 -36 26 -95 27 -150 0 -30 2 -35 8 -20 8 20 8 20 16 1 4 -11 8 -41 8 -67 1
-33 5 -45 14 -42 8 4 12 -6 12 -31 0 -25 4 -36 15 -36 8 0 15 -9 15 -20 0 -11
4 -20 8 -20 4 0 16 -14 25 -30 28 -46 3 -69 -30 -30 -10 11 -25 20 -33 20 -9
0 -26 9 -38 20 -42 39 -53 86 -56 238 -2 79 -7 146 -10 149 -3 4 -6 22 -5 42
0 20 3 29 6 21 3 -8 11 -28 18 -45z m665 -21 c0 -34 -4 -53 -10 -49 -11 7 -13
48 -4 83 10 36 14 26 14 -34z m-1292 5 c19 -7 22 -16 22 -61 1 -29 5 -73 10
-98 5 -25 6 -62 3 -83 l-6 -37 -33 67 c-19 37 -34 75 -34 84 0 10 -4 21 -10
24 -5 3 -10 17 -10 31 0 14 -5 34 -11 45 -6 12 -8 27 -5 35 6 15 17 14 74 -7z
m102 11 c0 -5 -4 -10 -10 -10 -5 0 -10 5 -10 10 0 6 5 10 10 10 6 0 10 -4 10
-10z m-200 -40 c0 -5 -4 -10 -10 -10 -5 0 -10 5 -10 10 0 6 5 10 10 10 6 0 10
-4 10 -10z m10 -50 c0 -22 17 -64 40 -100 9 -14 22 -41 29 -60 7 -19 23 -54
34 -77 12 -23 18 -45 14 -49 -14 -14 -129 -17 -137 -4 -18 29 -8 326 11 314 5
-3 9 -14 9 -24z m212 -14 c10 -11 18 -27 18 -33 0 -7 7 -13 15 -13 9 0 12 -6
9 -15 -6 -14 41 -151 57 -170 15 -16 10 -25 -16 -25 -14 0 -25 5 -25 11 0 6 7
9 15 5 19 -7 19 8 0 24 -12 10 -20 7 -46 -14 -17 -15 -37 -25 -43 -23 -13 4
-24 93 -20 157 2 25 1 37 -2 28 -11 -38 -24 -15 -24 43 0 58 1 60 23 54 12 -4
30 -17 39 -29z m2047 -15 c0 -9 3 -60 7 -113 6 -84 5 -98 -8 -98 -9 0 -21 7
-28 15 -11 14 -14 13 -24 -1 -7 -9 -22 -14 -36 -12 -29 4 -38 29 -39 109 -1
64 19 91 68 93 16 1 29 3 29 6 -1 13 3 17 16 17 8 0 15 -7 15 -16z m171 -60
c0 -49 4 -72 15 -81 8 -7 13 -22 11 -34 -16 -78 -14 -74 -53 -73 l-38 2 1 48
c0 27 6 52 13 56 7 4 17 40 23 79 6 40 14 72 19 72 5 0 9 -31 9 -69z m-2032
-69 c2 -12 8 -22 14 -22 6 0 9 -26 6 -70 -2 -38 0 -70 4 -70 4 0 8 -8 8 -17 0
-21 -19 0 -70 77 -16 25 -34 50 -40 57 -5 7 -10 16 -10 21 0 4 -9 27 -20 50
-11 22 -20 53 -20 67 0 27 1 26 63 -22 36 -29 63 -59 65 -71z m2062 43 c0 -8
-4 -15 -10 -15 -5 0 -7 7 -4 15 4 8 8 15 10 15 2 0 4 -7 4 -15z m163 -72 c-3
-18 -9 -33 -14 -33 -10 0 -12 44 -2 79 6 22 7 23 13 5 4 -10 5 -34 3 -51z
m-568 27 c10 -15 -5 -50 -20 -50 -8 0 -18 -7 -23 -16 -15 -27 -54 0 -50 34 2
22 9 28 38 33 19 4 38 7 42 8 4 0 10 -4 13 -9z m-1570 -40 c3 -5 -1 -10 -10
-10 -9 0 -13 5 -10 10 3 6 8 10 10 10 2 0 7 -4 10 -10z m1452 -30 c-3 -15 -1
-32 4 -37 6 -6 9 -19 7 -29 -4 -17 -6 -16 -16 6 -7 14 -19 35 -27 46 -14 20
-14 23 0 38 22 22 38 10 32 -24z m-1412 10 c3 -5 -3 -10 -15 -10 -12 0 -18 5
-15 10 3 6 10 10 15 10 5 0 12 -4 15 -10z m47 -60 c31 -17 64 -42 73 -57 13
-19 14 -25 4 -21 -138 55 -144 58 -145 83 -2 32 1 31 68 -5z m2199 -11 c7 -15
9 -60 6 -138 -7 -135 -5 -121 -14 -121 -5 0 -9 24 -10 53 -1 28 -9 72 -18 97
-13 38 -14 51 -3 87 14 48 22 53 39 22z m-148 -51 c-7 -25 -14 -32 -29 -30
-27 5 -27 6 -3 46 27 46 48 35 32 -16z m-848 -13 c-11 -8 -28 -22 -38 -32 -16
-15 -19 -16 -27 -3 -5 8 -10 18 -10 21 0 12 50 40 60 34 6 -3 10 -1 10 6 0 10
2 10 13 0 10 -10 8 -15 -8 -26z m-1495 15 c0 -5 -2 -10 -4 -10 -3 0 -8 5 -11
10 -3 6 -1 10 4 10 6 0 11 -4 11 -10z m1390 -45 c13 -15 20 -75 10 -75 -11 1
-50 49 -50 62 0 30 21 36 40 13z m-2074 -26 c4 -8 9 -8 17 0 14 14 37 -5 37
-30 0 -12 10 -21 25 -25 18 -4 25 -13 25 -29 0 -13 4 -27 10 -30 11 -7 34 -56
49 -105 18 -62 29 -95 36 -112 4 -11 0 -20 -14 -28 -17 -8 -21 -8 -19 2 2 7
-4 12 -12 11 -15 -2 -80 75 -80 95 0 6 -6 12 -12 15 -9 3 -8 10 6 26 11 11 16
21 13 21 -3 0 -2 14 3 31 15 52 -19 31 -41 -26 -30 -79 -13 -113 112 -214 54
-45 105 -81 113 -81 7 0 24 -10 37 -21 13 -12 34 -28 46 -36 13 -9 25 -30 29
-51 3 -21 8 -45 11 -54 2 -10 0 -18 -6 -18 -6 0 -11 9 -11 19 0 24 -36 69 -47
58 -4 -5 0 -14 10 -21 28 -21 22 -51 -11 -54 -23 -2 -42 12 -103 73 -41 41
-99 94 -129 118 -30 23 -57 44 -60 47 -3 3 -18 13 -35 22 -16 9 -44 37 -61 61
-25 36 -32 58 -37 118 -3 41 -2 78 2 82 9 9 41 -17 59 -48 17 -32 31 -8 18 34
-6 21 -9 66 -8 100 4 58 13 74 28 50z m1364 -19 c0 -5 -5 -10 -11 -10 -5 0 -7
5 -4 10 3 6 8 10 11 10 2 0 4 -4 4 -10z m854 -28 c16 -31 11 -75 -11 -94 -13
-10 -20 -6 -44 22 -34 42 -36 64 -7 84 32 23 45 20 62 -12z m751 -94 c-13 -52
-32 -85 -42 -74 -8 8 19 119 34 142 25 39 29 12 8 -68z m31 -165 c-11 -11 -19
6 -11 24 8 17 8 17 12 0 3 -10 2 -21 -1 -24z m-2696 -29 c0 -8 -5 -12 -10 -9
-6 4 -8 11 -5 16 9 14 15 11 15 -7z m2680 11 c0 -17 -27 -54 -55 -75 -18 -14
-31 -27 -29 -29 5 -5 -68 -71 -78 -71 -19 0 3 57 41 108 16 22 31 32 45 30 12
-1 22 1 23 5 7 23 53 51 53 32z m-2673 -57 c-3 -8 -6 -5 -6 6 -1 11 2 17 5 13
3 -3 4 -12 1 -19z m-57 -2 c0 -2 3 -13 7 -23 6 -17 5 -17 -13 -2 -10 9 -26 19
-34 22 -8 3 -3 6 13 6 15 1 27 -1 27 -3z m40 -46 c0 -5 -2 -10 -4 -10 -3 0 -8
5 -11 10 -3 6 -1 10 4 10 6 0 11 -4 11 -10z m2734 -159 c-28 -77 -77 -161 -94
-161 -6 0 -10 24 -10 53 0 57 25 105 94 183 42 49 46 24 10 -75z m-244 -230
c-8 -61 -16 -111 -19 -111 -10 0 -51 69 -51 84 0 8 4 17 9 20 4 3 14 27 21 53
18 68 30 87 42 75 8 -8 7 -44 -2 -121z m-2412 100 c-2 -3 -17 -34 -32 -68 -16
-35 -33 -63 -39 -63 -9 0 -2 123 8 140 5 8 67 0 63 -9z m2307 -221 c12 -20
-55 -170 -76 -170 -9 0 -14 35 -11 81 1 15 16 43 34 63 33 38 43 42 53 26z
m-2058 -133 c39 -37 45 -48 40 -69 -9 -34 -41 -27 -59 13 -7 16 -16 29 -20 29
-5 0 -8 9 -8 19 0 11 -4 23 -10 26 -5 3 -10 10 -10 16 0 19 23 8 67 -34z m478
-377 c3 -5 -1 -10 -9 -10 -9 0 -16 5 -16 10 0 6 4 10 9 10 6 0 13 -4 16 -10z
m889 -11 c-4 -8 1 -9 17 -4 22 7 22 7 6 -9 -9 -10 -17 -25 -17 -34 0 -10 -10
-22 -22 -27 -18 -8 -24 -20 -26 -53 -3 -38 -5 -41 -18 -27 -14 13 -18 12 -37
-11 -19 -21 -31 -25 -84 -27 -62 -1 -92 11 -79 32 4 6 14 11 23 11 8 0 26 9
40 20 14 11 29 17 34 14 5 -3 9 2 9 10 0 9 7 16 15 16 8 0 15 4 15 9 0 5 12
16 26 26 22 14 28 15 36 4 8 -11 9 -10 5 3 -6 18 15 30 38 22 8 -4 15 -1 15 5
0 6 -6 11 -12 11 -9 0 -8 4 2 10 20 13 23 12 14 -1z m-755 -68 c17 -16 27 -32
22 -35 -5 -3 -14 1 -21 9 -7 8 -19 15 -27 15 -23 0 -54 20 -48 31 11 17 43 9
74 -20z m733 -53 c-9 -9 -12 -7 -12 12 0 19 3 21 12 12 9 -9 9 -15 0 -24z
m-658 -7 c3 -5 14 -7 24 -4 12 3 18 -2 19 -16 2 -28 -17 -26 -46 4 -13 14 -18
25 -13 25 6 0 13 -4 16 -9z"/>
<path d="M4007 3014 c-8 -8 3 -34 14 -34 5 0 9 9 9 20 0 19 -11 26 -23 14z"/>
<path d="M3018 1163 c7 -3 16 -2 19 1 4 3 -2 6 -13 5 -11 0 -14 -3 -6 -6z"/>
<path d="M5286 3761 c-17 -18 -16 -19 8 -17 18 1 26 7 26 19 0 22 -13 22 -34
-2z"/>
<path d="M5208 3743 c7 -3 16 -2 19 1 4 3 -2 6 -13 5 -11 0 -14 -3 -6 -6z"/>
<path d="M4403 3605 c0 -22 2 -30 4 -17 2 12 2 30 0 40 -3 9 -5 -1 -4 -23z"/>
<path d="M3976 3594 c-4 -15 -2 -32 3 -37 8 -8 11 0 11 26 0 44 -5 47 -14 11z"/>
<path d="M4403 3520 c0 -25 2 -35 4 -22 2 12 2 32 0 45 -2 12 -4 2 -4 -23z"/>
<path d="M1312 3455 c0 -16 2 -22 5 -12 2 9 2 23 0 30 -3 6 -5 -1 -5 -18z"/>
<path d="M4391 3300 c0 -75 3 -98 10 -82 10 27 10 124 -1 161 -5 16 -8 -13 -9
-79z"/>
<path d="M3181 3285 c1 -46 1 -48 11 -22 7 20 7 35 0 50 -9 18 -11 14 -11 -28z"/>
<path d="M1322 3255 c0 -47 2 -62 7 -45 5 14 5 45 1 70 -7 41 -8 39 -8 -25z"/>
<path d="M15 3191 c-3 -5 -1 -12 5 -16 5 -3 10 1 10 9 0 18 -6 21 -15 7z"/>
<path d="M3202 3160 c0 -14 2 -19 5 -12 2 6 2 18 0 25 -3 6 -5 1 -5 -13z"/>
<path d="M1150 3117 c0 -13 4 -27 9 -32 5 -6 11 -19 14 -30 3 -14 5 -11 6 10
1 38 -9 75 -20 75 -5 0 -9 -10 -9 -23z"/>
<path d="M3212 3070 c0 -19 2 -27 5 -17 2 9 2 25 0 35 -3 9 -5 1 -5 -18z"/>
<path d="M783 3037 c-50 -14 -59 -22 -45 -39 12 -15 17 -133 8 -198 l-7 -45
30 60 c58 117 88 206 76 225 -7 12 -7 12 -62 -3z"/>
<path d="M357 2969 c3 -11 16 -22 29 -25 16 -4 24 -14 24 -28 1 -21 1 -21 12
-1 16 30 17 30 33 9 11 -14 14 -15 9 -3 -3 10 0 20 5 24 16 9 3 25 -20 25 -10
0 -19 3 -19 8 0 4 -17 8 -39 8 -33 1 -38 -1 -34 -17z"/>
<path d="M990 2924 c0 -14 4 -23 9 -20 5 3 7 15 4 26 -7 28 -13 25 -13 -6z"/>
<path d="M2940 2916 c0 -19 5 -38 10 -41 6 -4 10 8 10 29 0 19 -4 38 -10 41
-6 4 -10 -8 -10 -29z"/>
<path d="M90 2924 c0 -8 5 -12 10 -9 6 4 8 11 5 16 -9 14 -15 11 -15 -7z"/>
<path d="M140 2919 c0 -5 -5 -7 -10 -4 -6 4 -17 1 -25 -5 -8 -7 -24 -9 -36 -5
-17 6 -21 4 -16 -8 3 -8 -3 -43 -14 -77 -25 -80 -28 -280 -4 -280 13 0 35 55
35 90 0 8 20 34 44 57 25 23 47 52 51 63 8 26 25 26 32 0 3 -11 9 -17 14 -15
4 3 4 16 -1 29 -6 16 -4 28 5 37 16 17 3 59 -20 59 -8 0 -15 4 -15 9 0 5 -9
13 -20 16 -15 5 -19 12 -15 26 4 10 4 19 1 19 -3 0 -6 -5 -6 -11z"/>
<path d="M2963 2825 c0 -22 2 -30 4 -17 2 12 2 30 0 40 -3 9 -5 -1 -4 -23z"/>
<path d="M2976 2717 c-5 -9 -5 -29 0 -45 7 -25 8 -26 11 -4 3 12 3 32 0 45 -3
19 -4 20 -11 4z"/>
<path d="M380 2674 c0 -3 6 -12 14 -20 13 -12 15 -12 13 6 -1 17 -27 31 -27
14z"/>
<path d="M2991 2604 c0 -11 3 -14 6 -6 3 7 2 16 -1 19 -3 4 -6 -2 -5 -13z"/>
<path d="M389 2599 c0 -2 -2 -26 -4 -53 l-3 -49 19 24 c23 29 24 52 4 69 -8 7
-15 11 -16 9z"/>
<path d="M270 2580 c0 -5 5 -10 11 -10 5 0 7 5 4 10 -3 6 -8 10 -11 10 -2 0
-4 -4 -4 -10z"/>
<path d="M3012 2550 c0 -14 2 -19 5 -12 2 6 2 18 0 25 -3 6 -5 1 -5 -13z"/>
<path d="M633 2548 c-5 -7 -20 -32 -33 -55 -13 -24 -29 -43 -35 -43 -17 0 -88
-77 -77 -84 5 -3 37 12 71 34 51 33 60 43 53 57 -7 12 -3 27 16 55 23 35 27
65 5 36z"/>
<path d="M3031 2484 c0 -11 3 -14 6 -6 3 7 2 16 -1 19 -3 4 -6 -2 -5 -13z"/>
<path d="M10 2425 c0 -8 5 -15 10 -15 6 0 10 7 10 15 0 8 -4 15 -10 15 -5 0
-10 -7 -10 -15z"/>
<path d="M1935 2400 c3 -5 10 -10 16 -10 5 0 9 5 9 10 0 6 -7 10 -16 10 -8 0
-12 -4 -9 -10z"/>
<path d="M3638 2400 c-30 -18 -161 -38 -186 -29 -13 5 -36 9 -52 9 -16 0 -32
5 -35 10 -3 6 -18 10 -33 10 -25 0 -23 -2 14 -19 88 -40 256 -35 313 10 25 20
9 26 -21 9z"/>
<path d="M8 2357 c-5 -40 -3 -55 6 -46 9 9 15 78 7 83 -5 3 -11 -13 -13 -37z"/>
<path d="M1970 2380 c0 -5 10 -10 23 -10 13 0 27 -4 33 -9 10 -10 85 -15 144
-11 19 2 -5 7 -54 11 -50 5 -94 13 -100 19 -13 13 -46 13 -46 0z"/>
<path d="M2278 2383 c7 -3 16 -2 19 1 4 3 -2 6 -13 5 -11 0 -14 -3 -6 -6z"/>
<path d="M401 2364 c0 -11 3 -14 6 -6 3 7 2 16 -1 19 -3 4 -6 -2 -5 -13z"/>
<path d="M2220 2370 c0 -13 11 -13 30 0 12 8 11 10 -7 10 -13 0 -23 -4 -23
-10z"/>
<path d="M2865 2360 c-8 -13 -24 -400 -18 -417 3 -7 11 -13 18 -13 14 0 19 12
29 71 4 21 18 54 32 75 28 40 26 52 -16 104 -21 26 -45 140 -37 172 6 20 2 23
-8 8z"/>
<path d="M2820 1661 c8 -5 49 -5 90 -1 l75 7 -90 1 c-53 1 -84 -2 -75 -7z"/>
<path d="M2631 1651 c-10 -6 -9 -10 3 -14 8 -3 18 -2 21 3 8 13 -9 20 -24 11z"/>
<path d="M4159 718 c0 -13 -3 -35 -5 -51 -3 -15 -1 -35 4 -44 16 -28 35 21 27
68 -8 44 -25 62 -26 27z"/>
<path d="M4063 680 c0 -25 2 -35 4 -22 2 12 2 32 0 45 -2 12 -4 2 -4 -23z"/>
<path d="M4258 626 c-7 -39 -4 -55 8 -44 3 3 4 23 2 44 l-3 39 -7 -39z"/>
<path d="M524 522 c-29 -20 -87 -113 -114 -184 -30 -78 -80 -276 -80 -317 0
-12 7 -21 15 -21 9 0 15 9 15 25 0 94 74 338 129 422 58 91 58 91 35 75z"/>
<path d="M4596 488 c-5 -22 -8 -83 -23 -361 -5 -110 -4 -127 9 -127 23 0 25
25 27 280 2 212 -1 265 -13 208z"/>
<path d="M731 318 c-2 -42 78 -318 92 -318 15 0 6 48 -32 160 -21 63 -43 131
-49 150 -9 32 -10 33 -11 8z"/>
<path d="M58 193 c-15 -10 -31 -31 -35 -48 l-7 -30 -7 35 c-4 24 -7 5 -8 -57
l-1 -93 115 0 115 0 -6 28 c-9 40 -46 92 -66 92 -23 0 -80 59 -74 76 7 17 7
17 -26 -3z"/>
</g>
</svg>
